<svg width="150" height="150" xmlns="http://www.w3.org/2000/svg">
 <title/>

 <g>
  <title>background</title>
  <rect fill="none" id="canvas_background" height="152" width="152" y="-1" x="-1"/>
 </g>
 <g>
  <title>Layer 1</title>
  <path stroke="null" id="svg_1" fill="#ffffff" d="m146.9995,68.378578l-65.610012,-65.724551a9.622802,9.639601 0 0 0 -13.246974,0l-12.497145,12.518962a3.124286,3.129741 0 0 0 0,4.444232l11.247431,11.642635a3.124286,3.129741 0 0 0 3.374229,0.688543a12.497145,12.518962 0 0 1 16.996117,11.830419a12.497145,12.518962 0 0 1 -0.937286,4.632016a3.124286,3.129741 0 0 0 0.687343,3.38012l10.997488,10.766307a3.124286,3.129741 0 0 0 3.374229,0.688543a12.497145,12.518962 0 1 1 -7.873201,11.830419a12.497145,12.518962 0 0 1 0.8748,-4.444232a3.124286,3.129741 0 0 0 -0.687343,-3.317525l-10.497602,-10.578523a3.124286,3.129741 0 0 0 -5.311287,2.190818l0,33.05006a3.124286,3.129741 0 0 0 1.874572,2.879361a12.497145,12.518962 0 1 1 -9.997716,0a3.124286,3.129741 0 0 0 1.874572,-2.879361l0,-33.926387a3.124286,3.129741 0 0 0 -1.874572,-2.879361a12.497145,12.518962 0 0 1 -6.623487,-16.024271a3.124286,3.129741 0 0 0 -0.8748,-3.317525l-11.309916,-11.58004a3.124286,3.129741 0 0 0 -4.436487,0l-43.740008,43.816367a9.372859,9.389222 0 0 0 0,13.2701l65.610012,65.787146a9.372859,9.389222 0 0 0 13.246974,0l65.610012,-65.787146a9.372859,9.389222 0 0 0 0,-13.2701l-0.249943,0.312974z"/>
 </g>
</svg>