<svg width="150" height="150" xmlns="http://www.w3.org/2000/svg">
 <title/>

 <g>
  <title>background</title>
  <rect fill="none" id="canvas_background" height="152" width="152" y="-1" x="-1"/>
 </g>
 <g>
  <title>Layer 1</title>
  <path stroke="null" id="svg_1" d="m124.213018,119.491199l-26.786833,-44.716932l26.786833,-44.716932l13.081942,44.716932l-13.081942,44.716932zm-59.180212,-4.347479l-33.639278,-32.91663l53.573665,0l26.786833,44.716932l-46.72122,-11.800301zm0,-81.359973l46.72122,-11.800301l-26.786833,44.716932l-54.196615,0c0,0.621068 34.262228,-32.91663 34.262228,-32.91663zm68.524456,-33.537699l-61.04906,15.526712l-9.344244,15.526712l-18.065538,0l-44.852371,43.474795l44.852371,43.474795l18.065538,0l8.721294,15.526712l61.04906,15.526712l16.19669,-59.001507l-8.721294,-15.526712l9.344244,-15.526712l-16.19669,-59.001507z"/>
 </g>
</svg>