<svg width="150" height="150" xmlns="http://www.w3.org/2000/svg" style="vector-effect: non-scaling-stroke;" stroke="null">

 <g stroke="null">
  <title stroke="null">background</title>
  <rect stroke="null" fill="none" id="canvas_background" height="152" width="152" y="-1" x="-1"/>
 </g>
 <g stroke="null">
  <title stroke="null">Layer 1</title>
  <path stroke="null" id="svg_1" fill-rule="evenodd" clip-rule="evenodd" fill="#ffffff" d="m117.400723,110.499773l0,-29.246957c0,-15.669796 -8.392427,-22.961558 -19.580659,-22.961558c-9.028748,0 -13.074649,4.951905 -15.329331,8.425481l0,-7.226835l-17.010322,0c0.225468,4.787092 0,51.009869 0,51.009869l17.010322,0l0,-28.487815c0,-1.520782 0.110229,-3.044061 0.561165,-4.132831c1.227549,-3.046558 4.02586,-6.200495 8.723113,-6.200495c6.157787,0 8.617895,4.677216 8.617895,11.531971l0,27.291666l17.007816,0l0,-0.002497zm-69.840021,-57.972003c5.929813,0 9.624986,-3.920571 9.624986,-8.817538c-0.110229,-5.001849 -3.695173,-8.810046 -9.512252,-8.810046s-9.622481,3.8057 -9.622481,8.810046c0,4.896967 3.692668,8.817538 9.402023,8.817538l0.107724,0zm27.659935,97.584749c-41.506187,0 -75.15606,-33.542104 -75.15606,-74.915361c0,-41.375754 33.649873,-74.915361 75.15606,-74.915361s75.15606,33.539607 75.15606,74.915361c0,41.373257 -33.649873,74.915361 -75.15606,74.915361zm-19.154774,-39.612746l0,-51.009869l-17.007816,0l0,51.009869l17.007816,0z"/>
 </g>
</svg>